<svg xmlns="http://www.w3.org/2000/svg" width="60" height="60" viewBox="0 0 60 60"><path d="M53,60H7a7.008,7.008,0,0,1-7-7V7A7.008,7.008,0,0,1,7,0H55a5.006,5.006,0,0,1,5,5V53A7.008,7.008,0,0,1,53,60ZM40.01,21.1V40h4.017V21.1ZM20.75,33.062H30.3L32.8,40h4.341L27.791,14.912H23.348L14,40h4.306l2.443-6.937ZM42.044,13.853a2.306,2.306,0,0,0-1.683.581,2.234,2.234,0,0,0-.59,1.658,2.192,2.192,0,0,0,.59,1.615,2.287,2.287,0,0,0,1.683.59,2.239,2.239,0,0,0,1.649-.59,2.192,2.192,0,0,0,.59-1.615,2.234,2.234,0,0,0-.59-1.658A2.257,2.257,0,0,0,42.044,13.853ZM29.227,29.541H21.947L24.2,23.03a38.61,38.61,0,0,0,1.35-4.6c.112.446.321,1.17.624,2.153s.536,1.692.709,2.154l2.341,6.8Z"/></svg>