<svg xmlns="http://www.w3.org/2000/svg" width="60" height="60" viewBox="0 0 60 60"><path d="M53,60H7a7.008,7.008,0,0,1-7-7V7A7.008,7.008,0,0,1,7,0H55a5.006,5.006,0,0,1,5,5V53A7.008,7.008,0,0,1,53,60ZM34.242,37.727V41.2a13.71,13.71,0,0,0,6.067,1.145,9.7,9.7,0,0,0,5.776-1.478A4.966,4.966,0,0,0,48.1,36.617a5.042,5.042,0,0,0-.513-2.35,4.978,4.978,0,0,0-1.572-1.734,16.6,16.6,0,0,0-3.4-1.658A18.357,18.357,0,0,1,39,29.183a1.831,1.831,0,0,1-.829-1.5c0-1.2,1.069-1.812,3.179-1.812A14.107,14.107,0,0,1,46.5,27.131l1.3-3.025a15.151,15.151,0,0,0-6.306-1.35A9.328,9.328,0,0,0,36.165,24.1a4.328,4.328,0,0,0-1.957,3.768,4.7,4.7,0,0,0,1.154,3.281,12.149,12.149,0,0,0,4.417,2.529,23.4,23.4,0,0,1,2.614,1.162,4.872,4.872,0,0,1,1.351.992,1.783,1.783,0,0,1,.41,1.2c0,1.485-1.248,2.238-3.708,2.238A14.951,14.951,0,0,1,34.242,37.727ZM14.3,17.015V42h4.084V32.652h2.6c3.141,0,5.6-.7,7.3-2.085a7.315,7.315,0,0,0,2.563-6,6.9,6.9,0,0,0-2.333-5.639c-1.548-1.27-3.908-1.914-7.015-1.914Zm6.255,12.2H18.383V20.433h2.837a6.531,6.531,0,0,1,4.1,1.059A3.9,3.9,0,0,1,26.637,24.7a4,4,0,0,1-1.47,3.418A7.816,7.816,0,0,1,20.553,29.217Z"/></svg>