<svg xmlns="http://www.w3.org/2000/svg" width="60" height="60" viewBox="0 0 60 60"><path d="M53,60H7a7.008,7.008,0,0,1-7-7V7A7.008,7.008,0,0,1,7,0H55a5.006,5.006,0,0,1,5,5V53A7.008,7.008,0,0,1,53,60ZM40.974,23.207a6.864,6.864,0,0,0-5.721,2.663c-1.371,1.767-2.066,4.271-2.066,7.444s.686,5.652,2.039,7.4A6.8,6.8,0,0,0,40.9,43.351a6.631,6.631,0,0,0,5.818-2.9h.194L47.637,43h3.234V15.648H46.723v7.084a24.931,24.931,0,0,0,.3,3.3h-.211A6.732,6.732,0,0,0,40.974,23.207ZM20.057,32.488h0L26.491,43h4.834L22.676,29.746,30.709,17.3H26.174l-5.942,9.721L14.291,17.3H9.616L17.6,29.676,9.07,43h4.5L20.056,32.49Zm21.955,7.523a3.873,3.873,0,0,1-3.428-1.7,8.874,8.874,0,0,1-1.142-4.931,9.1,9.1,0,0,1,1.177-5.036,3.816,3.816,0,0,1,3.358-1.766,4.455,4.455,0,0,1,3.744,1.546c.793,1.027,1.2,2.784,1.2,5.221v.58a7.582,7.582,0,0,1-1.2,4.649A4.517,4.517,0,0,1,42.012,40.011Z"/></svg>